<svg width="597" height="180" viewBox="0 0 597 180" fill="none" xmlns="http://www.w3.org/2000/svg">
<path d="M194.129 96.1801L230.059 15.3101H248.549L284.829 96.1801H265.189L235.499 24.7801H243.009L213.319 96.1801H194.139H194.129ZM212.269 78.8501L217.009 64.6401H258.829L263.679 78.8501H212.269Z" fill="#444444"/>
<path d="M312.319 97.1C307.009 97.1 301.919 96.47 297.069 95.19C292.219 93.92 288.329 92.3199 285.399 90.3999L291.289 77.58C294.219 79.27 297.619 80.68 301.509 81.8C305.399 82.92 309.229 83.47 313.009 83.47C317.169 83.47 320.119 82.97 321.849 81.97C323.579 80.97 324.449 79.58 324.449 77.81C324.449 76.35 323.769 75.25 322.429 74.52C321.079 73.79 319.309 73.23 317.119 72.85C314.919 72.47 312.479 72.08 309.779 71.69C307.079 71.31 304.409 70.7699 301.749 70.0699C299.089 69.3799 296.629 68.3899 294.359 67.1199C292.089 65.8499 290.279 64.1 288.929 61.86C287.579 59.63 286.909 56.74 286.909 53.19C286.909 49.26 288.069 45.7799 290.379 42.7299C292.689 39.6899 295.959 37.32 300.199 35.62C304.439 33.93 309.559 33.08 315.569 33.08C319.879 33.08 324.219 33.56 328.569 34.52C332.919 35.48 336.599 36.81 339.599 38.51L333.479 51.33C330.549 49.64 327.569 48.44 324.529 47.75C321.489 47.06 318.579 46.71 315.809 46.71C311.649 46.71 308.649 47.25 306.799 48.33C304.949 49.41 304.029 50.8 304.029 52.49C304.029 54.03 304.719 55.2 306.109 56.01C307.499 56.82 309.309 57.42 311.539 57.8C313.769 58.19 316.239 58.57 318.929 58.96C321.629 59.35 324.279 59.88 326.899 60.58C329.519 61.27 331.959 62.26 334.239 63.53C336.509 64.8 338.319 66.5499 339.669 68.7899C341.019 71.0299 341.689 73.91 341.689 77.46C341.689 81.24 340.529 84.6099 338.219 87.5699C335.909 90.5399 332.579 92.87 328.229 94.56C323.879 96.25 318.579 97.1 312.339 97.1H312.319Z" fill="#444444"/>
<path d="M373.559 97.1C368.249 97.1 363.159 96.47 358.309 95.19C353.459 93.92 349.569 92.3199 346.639 90.3999L352.529 77.58C355.459 79.27 358.859 80.68 362.749 81.8C366.639 82.92 370.469 83.47 374.249 83.47C378.409 83.47 381.359 82.97 383.089 81.97C384.819 80.97 385.689 79.58 385.689 77.81C385.689 76.35 385.009 75.25 383.669 74.52C382.319 73.79 380.549 73.23 378.359 72.85C376.159 72.47 373.719 72.08 371.019 71.69C368.319 71.31 365.649 70.7699 362.989 70.0699C360.329 69.3799 357.869 68.3899 355.599 67.1199C353.329 65.8499 351.519 64.1 350.169 61.86C348.819 59.63 348.149 56.74 348.149 53.19C348.149 49.26 349.309 45.7799 351.619 42.7299C353.929 39.6899 357.199 37.32 361.439 35.62C365.679 33.93 370.799 33.08 376.809 33.08C381.119 33.08 385.459 33.56 389.809 34.52C394.159 35.48 397.839 36.81 400.839 38.51L394.719 51.33C391.789 49.64 388.809 48.44 385.769 47.75C382.729 47.06 379.819 46.71 377.049 46.71C372.889 46.71 369.889 47.25 368.039 48.33C366.189 49.41 365.269 50.8 365.269 52.49C365.269 54.03 365.959 55.2 367.349 56.01C368.739 56.82 370.549 57.42 372.779 57.8C375.009 58.19 377.479 58.57 380.169 58.96C382.869 59.35 385.519 59.88 388.139 60.58C390.759 61.27 393.199 62.26 395.479 63.53C397.749 64.8 399.559 66.5499 400.909 68.7899C402.259 71.0299 402.929 73.91 402.929 77.46C402.929 81.24 401.769 84.6099 399.459 87.5699C397.149 90.5399 393.819 92.87 389.469 94.56C385.119 96.25 379.819 97.1 373.579 97.1H373.559Z" fill="#444444"/>
<path d="M440.099 97.1C434.859 97.1 430.239 96.1 426.239 94.1C422.229 92.1 419.109 89.02 416.879 84.86C414.649 80.7 413.529 75.46 413.529 69.15V34.03H431.549V66.38C431.549 71.62 432.649 75.45 434.839 77.88C437.039 80.31 440.129 81.52 444.139 81.52C446.909 81.52 449.379 80.9 451.529 79.67C453.689 78.44 455.399 76.59 456.669 74.12C457.939 71.66 458.579 68.58 458.579 64.88V34.03H476.489V96.19H459.389V78.98L462.509 84.06C460.349 88.37 457.269 91.63 453.269 93.82C449.259 96.02 444.869 97.11 440.099 97.11V97.1Z" fill="#444444"/>
<path d="M493.129 96.18V34.02H510.339V51.7L507.909 46.5C509.759 42.11 512.719 38.78 516.809 36.51C520.889 34.24 525.859 33.1 531.709 33.1V49.85C531.019 49.7 530.339 49.58 529.689 49.5C529.029 49.42 528.399 49.38 527.779 49.38C522.699 49.38 518.649 50.81 515.649 53.65C512.649 56.5 511.139 60.89 511.139 66.82V96.17H493.119L493.129 96.18Z" fill="#444444"/>
<path d="M550.779 25.36C547.389 25.36 544.659 24.4 542.579 22.47C540.499 20.55 539.459 18.16 539.459 15.31C539.459 12.46 540.499 10.07 542.579 8.15001C544.659 6.23001 547.389 5.26001 550.779 5.26001C554.169 5.26001 556.809 6.17001 558.929 7.97001C561.049 9.78001 562.109 12.11 562.109 14.96C562.109 17.96 561.069 20.45 558.989 22.41C556.909 24.37 554.179 25.36 550.789 25.36H550.779ZM541.769 96.18V34.02H559.789V96.18H541.769Z" fill="#444444"/>
<path d="M585.559 25.36C582.169 25.36 579.439 24.4 577.359 22.47C575.279 20.55 574.239 18.16 574.239 15.31C574.239 12.46 575.279 10.07 577.359 8.15001C579.439 6.23001 582.169 5.26001 585.559 5.26001C588.949 5.26001 591.589 6.17001 593.709 7.97001C595.829 9.78001 596.889 12.11 596.889 14.96C596.889 17.96 595.849 20.45 593.769 22.41C591.689 24.37 588.959 25.36 585.569 25.36H585.559ZM576.549 96.18V34.02H594.569V96.18H576.549Z" fill="#444444"/>
<path d="M80.9794 0C80.9794 0 67.3494 2.75 37.7794 10.37C9.84939 17.57 0.0493958 20.45 0.0493958 20.45C0.0493958 20.45 -1.39061 49.25 11.2794 101.37C21.5094 143.45 59.6594 166.74 80.9694 179.93C102.279 166.74 140.429 143.45 150.659 101.37C163.329 49.24 161.889 20.45 161.889 20.45C161.889 20.45 152.099 17.57 124.159 10.37C94.5894 2.75 80.9594 0 80.9594 0H80.9794Z" fill="#3498DB"/>
<path d="M38.0092 81.96C48.2192 82.44 56.2492 87.51 62.4292 95.88C63.1992 96.93 63.8892 98.04 64.6192 99.11C65.8192 100.86 66.4492 100.86 67.5592 99.05C70.6892 93.94 73.9592 88.92 77.4992 84.08C92.1992 63.94 110.549 47.71 131.269 34.03C132.199 33.42 133.209 32.62 134.199 33.8C135.239 35.04 134.239 35.99 133.459 36.85C124.629 46.61 116.289 56.79 108.459 67.37C92.7792 88.54 79.4192 111.07 68.7092 135.15C68.2892 136.09 67.9992 137.24 66.6992 137.28C65.2592 137.33 64.9792 136.09 64.5792 135.07C58.7692 120.48 51.6692 106.61 42.0292 94.14C39.7992 91.26 37.3792 88.53 35.0392 85.73C34.3892 84.96 33.3192 84.33 33.7892 83.09C34.2992 81.75 35.5492 81.99 36.6392 81.96C36.9692 81.96 37.2892 81.96 38.0092 81.96Z" fill="white"/>
<path d="M195.899 170.02V128.97H200.239V166.27H223.209V170.02H195.909H195.899Z" fill="#6D6C6C"/>
<path d="M231.639 132.43C230.779 132.43 230.059 132.14 229.469 131.55C228.879 130.96 228.589 130.26 228.589 129.44C228.589 128.62 228.879 127.93 229.469 127.36C230.059 126.79 230.779 126.51 231.639 126.51C232.499 126.51 233.219 126.78 233.809 127.33C234.399 127.88 234.689 128.56 234.689 129.38C234.689 130.24 234.409 130.96 233.839 131.55C233.269 132.14 232.539 132.43 231.639 132.43ZM229.529 170.02V139.23H233.689V170.02H229.529Z" fill="#6D6C6C"/>
<path d="M240.479 142.69V139.23H259.52V142.69H240.479ZM245.99 170.02V135.36C245.99 132.62 246.789 130.42 248.389 128.73C249.989 127.05 252.299 126.21 255.299 126.21C256.469 126.21 257.599 126.37 258.699 126.68C259.789 126.99 260.709 127.48 261.449 128.15L260.039 131.26C259.449 130.75 258.77 130.37 257.99 130.12C257.21 129.87 256.37 129.74 255.47 129.74C253.71 129.74 252.37 130.23 251.43 131.21C250.49 132.19 250.02 133.63 250.02 135.55V140.24L250.139 142.17V170.03H245.979L245.99 170.02Z" fill="#6D6C6C"/>
<path d="M277.629 170.31C274.429 170.31 271.609 169.64 269.189 168.29C266.769 166.94 264.869 165.08 263.509 162.72C262.139 160.35 261.459 157.65 261.459 154.6C261.459 151.55 262.109 148.85 263.419 146.51C264.729 144.16 266.519 142.32 268.809 140.97C271.089 139.62 273.659 138.95 276.509 138.95C279.359 138.95 281.969 139.61 284.209 140.91C286.459 142.22 288.219 144.06 289.509 146.42C290.799 148.79 291.439 151.51 291.439 154.6C291.439 154.8 291.429 155 291.409 155.22C291.389 155.44 291.379 155.66 291.379 155.89H264.609V152.78H289.159L287.519 154.01C287.519 151.78 287.039 149.8 286.079 148.06C285.119 146.32 283.819 144.96 282.179 143.98C280.539 143 278.639 142.51 276.499 142.51C274.359 142.51 272.499 143 270.819 143.98C269.139 144.96 267.829 146.33 266.889 148.08C265.949 149.84 265.479 151.85 265.479 154.12V154.77C265.479 157.12 265.999 159.18 267.029 160.96C268.059 162.74 269.509 164.13 271.369 165.12C273.219 166.12 275.339 166.62 277.729 166.62C279.599 166.62 281.349 166.29 282.969 165.62C284.589 164.96 285.989 163.94 287.159 162.57L289.499 165.27C288.129 166.91 286.419 168.16 284.369 169.02C282.319 169.88 280.059 170.31 277.599 170.31H277.629Z" fill="#6D6C6C"/>
<path d="M316.169 170.02V128.97H320.509V170.02H316.169Z" fill="#6D6C6C"/>
<path d="M332.989 170.02V139.23H336.969V147.67L336.329 146.09C337.309 143.86 338.869 142.11 341.019 140.84C343.169 139.57 345.729 138.93 348.689 138.93C351.189 138.93 353.389 139.41 355.279 140.37C357.169 141.33 358.659 142.78 359.729 144.74C360.799 146.7 361.339 149.16 361.339 152.13V170.02H357.179V152.54C357.179 149.3 356.369 146.84 354.749 145.18C353.129 143.52 350.849 142.69 347.929 142.69C345.739 142.69 343.839 143.13 342.219 144.01C340.599 144.89 339.349 146.16 338.469 147.82C337.589 149.48 337.149 151.49 337.149 153.83V170.02H332.989Z" fill="#6D6C6C"/>
<path d="M380.85 170.31C378.31 170.31 375.91 169.95 373.64 169.23C371.37 168.51 369.6 167.6 368.31 166.5L370.18 163.22C371.43 164.16 373.03 164.97 374.98 165.65C376.93 166.33 378.98 166.68 381.13 166.68C384.06 166.68 386.17 166.22 387.46 165.3C388.75 164.38 389.39 163.16 389.39 161.63C389.39 160.5 389.03 159.61 388.31 158.96C387.59 158.31 386.64 157.83 385.47 157.49C384.3 157.16 382.99 156.87 381.54 156.64C380.09 156.4 378.66 156.13 377.23 155.82C375.8 155.51 374.51 155.05 373.33 154.44C372.16 153.83 371.21 153 370.49 151.95C369.77 150.89 369.41 149.49 369.41 147.73C369.41 145.97 369.88 144.54 370.82 143.21C371.76 141.88 373.13 140.83 374.95 140.07C376.77 139.31 378.98 138.93 381.6 138.93C383.59 138.93 385.58 139.19 387.58 139.72C389.57 140.25 391.21 140.94 392.5 141.8L390.68 145.14C389.31 144.2 387.85 143.53 386.29 143.12C384.73 142.71 383.17 142.5 381.6 142.5C378.83 142.5 376.79 142.98 375.48 143.94C374.17 144.9 373.52 146.12 373.52 147.61C373.52 148.78 373.88 149.7 374.6 150.37C375.32 151.04 376.28 151.55 377.47 151.92C378.66 152.29 379.97 152.59 381.4 152.83C382.83 153.07 384.25 153.35 385.68 153.68C387.11 154.01 388.41 154.46 389.61 155.03C390.8 155.6 391.76 156.4 392.48 157.43C393.2 158.47 393.56 159.83 393.56 161.51C393.56 163.31 393.06 164.86 392.07 166.17C391.07 167.48 389.63 168.5 387.73 169.22C385.83 169.94 383.54 170.3 380.85 170.3V170.31Z" fill="#6D6C6C"/>
<path d="M413.89 170.31C411.27 170.31 408.99 169.82 407.04 168.84C405.09 167.86 403.57 166.4 402.5 164.44C401.43 162.49 400.89 160.04 400.89 157.11V139.22H405.05V156.64C405.05 159.92 405.86 162.4 407.48 164.06C409.1 165.72 411.38 166.55 414.31 166.55C416.46 166.55 418.32 166.11 419.9 165.23C421.48 164.35 422.69 163.07 423.53 161.39C424.37 159.71 424.79 157.69 424.79 155.35V139.22H428.95V170.01H424.97V161.57L425.61 163.09C424.63 165.36 423.12 167.13 421.07 168.4C419.02 169.67 416.63 170.31 413.89 170.31Z" fill="#6D6C6C"/>
<path d="M440.549 170.02V139.23H444.529V147.62L444.119 146.15C444.979 143.8 446.419 142.02 448.459 140.78C450.489 139.55 453.009 138.93 456.019 138.93V142.98C455.859 142.98 455.709 142.98 455.549 142.95C455.389 142.93 455.239 142.92 455.079 142.92C451.839 142.92 449.299 143.91 447.459 145.88C445.619 147.85 444.709 150.66 444.709 154.3V170.02H440.549Z" fill="#6D6C6C"/>
<path d="M470.659 170.31C468.359 170.31 466.349 169.93 464.659 169.17C462.959 168.41 461.659 167.35 460.759 166C459.859 164.65 459.409 163.1 459.409 161.34C459.409 159.74 459.789 158.28 460.549 156.97C461.309 155.66 462.559 154.6 464.299 153.8C466.039 153 468.369 152.6 471.299 152.6H481.899V155.71H471.409C468.439 155.71 466.379 156.24 465.229 157.29C464.079 158.35 463.499 159.66 463.499 161.22C463.499 162.98 464.179 164.39 465.549 165.44C466.919 166.5 468.829 167.02 471.289 167.02C473.749 167.02 475.649 166.48 477.349 165.41C479.049 164.33 480.289 162.78 481.069 160.75L482.009 163.62C481.229 165.65 479.869 167.28 477.939 168.49C476.009 169.7 473.579 170.31 470.649 170.31H470.659ZM481.259 170.02V163.22L481.079 162.11V150.73C481.079 148.11 480.349 146.1 478.879 144.69C477.419 143.28 475.239 142.58 472.349 142.58C470.359 142.58 468.459 142.91 466.669 143.58C464.869 144.25 463.349 145.12 462.099 146.22L460.229 143.11C461.789 141.78 463.669 140.76 465.849 140.03C468.039 139.31 470.339 138.95 472.759 138.95C476.739 138.95 479.819 139.94 481.989 141.91C484.159 143.88 485.239 146.89 485.239 150.91V170.03H481.259V170.02Z" fill="#6D6C6C"/>
<path d="M496.549 170.02V139.23H500.529V147.67L499.889 146.09C500.869 143.86 502.429 142.11 504.579 140.84C506.729 139.57 509.289 138.93 512.249 138.93C514.749 138.93 516.949 139.41 518.839 140.37C520.729 141.33 522.219 142.78 523.289 144.74C524.359 146.7 524.899 149.16 524.899 152.13V170.02H520.739V152.54C520.739 149.3 519.929 146.84 518.309 145.18C516.689 143.52 514.409 142.69 511.489 142.69C509.299 142.69 507.399 143.13 505.779 144.01C504.159 144.89 502.909 146.16 502.029 147.82C501.149 149.48 500.709 151.49 500.709 153.83V170.02H496.549Z" fill="#6D6C6C"/>
<path d="M548.93 170.31C545.88 170.31 543.16 169.64 540.76 168.29C538.36 166.94 536.47 165.08 535.11 162.72C533.74 160.35 533.06 157.65 533.06 154.6C533.06 151.55 533.74 148.79 535.11 146.45C536.48 144.1 538.36 142.27 540.76 140.94C543.16 139.61 545.89 138.95 548.93 138.95C551.55 138.95 553.91 139.46 556.02 140.48C558.13 141.5 559.79 143.02 561 145.05L557.9 147.16C556.85 145.6 555.54 144.44 553.97 143.7C552.41 142.96 550.71 142.59 548.87 142.59C546.68 142.59 544.71 143.09 542.95 144.09C541.19 145.09 539.81 146.49 538.79 148.28C537.77 150.08 537.27 152.19 537.27 154.61C537.27 157.03 537.78 159.15 538.79 160.94C539.81 162.74 541.19 164.14 542.95 165.13C544.71 166.12 546.68 166.63 548.87 166.63C550.71 166.63 552.4 166.26 553.97 165.52C555.53 164.78 556.84 163.64 557.9 162.12L561 164.23C559.79 166.22 558.13 167.74 556.02 168.77C553.91 169.81 551.55 170.32 548.93 170.32V170.31Z" fill="#6D6C6C"/>
<path d="M581.619 170.31C578.419 170.31 575.599 169.64 573.179 168.29C570.759 166.94 568.859 165.08 567.499 162.72C566.129 160.35 565.449 157.65 565.449 154.6C565.449 151.55 566.099 148.85 567.409 146.51C568.719 144.16 570.509 142.32 572.799 140.97C575.079 139.62 577.649 138.95 580.499 138.95C583.349 138.95 585.959 139.61 588.199 140.91C590.449 142.22 592.209 144.06 593.499 146.42C594.789 148.79 595.429 151.51 595.429 154.6C595.429 154.8 595.419 155 595.399 155.22C595.379 155.44 595.369 155.66 595.369 155.89H568.599V152.78H593.149L591.509 154.01C591.509 151.78 591.029 149.8 590.069 148.06C589.109 146.32 587.809 144.96 586.169 143.98C584.529 143 582.629 142.51 580.489 142.51C578.349 142.51 576.489 143 574.809 143.98C573.129 144.96 571.819 146.33 570.879 148.08C569.939 149.84 569.469 151.85 569.469 154.12V154.77C569.469 157.12 569.989 159.18 571.019 160.96C572.049 162.74 573.499 164.13 575.359 165.12C577.209 166.12 579.329 166.62 581.719 166.62C583.589 166.62 585.339 166.29 586.959 165.62C588.579 164.96 589.979 163.94 591.149 162.57L593.489 165.27C592.119 166.91 590.409 168.16 588.359 169.02C586.309 169.88 584.049 170.31 581.589 170.31H581.619Z" fill="#6D6C6C"/>
</svg>
